<svg width="20" height="20" viewBox="0 0 20 20" fill="none" xmlns="http://www.w3.org/2000/svg">
<g clip-path="url(#clip0_1221_3496)">
<path d="M7.5 19.9994H0.833333C0.61232 19.9994 0.400358 19.9116 0.244078 19.7553C0.0877974 19.5991 0 19.3871 0 19.1661C0 18.9451 0.0877974 18.7331 0.244078 18.5768C0.400358 18.4206 0.61232 18.3328 0.833333 18.3328H7.5C7.72101 18.3328 7.93298 18.4206 8.08926 18.5768C8.24554 18.7331 8.33333 18.9451 8.33333 19.1661C8.33333 19.3871 8.24554 19.5991 8.08926 19.7553C7.93298 19.9116 7.72101 19.9994 7.5 19.9994Z" fill="#111111"/>
<path d="M5.83333 16.6667H0.833333C0.61232 16.6667 0.400358 16.5789 0.244078 16.4226C0.0877974 16.2663 0 16.0544 0 15.8333C0 15.6123 0.0877974 15.4004 0.244078 15.2441C0.400358 15.0878 0.61232 15 0.833333 15H5.83333C6.05435 15 6.26631 15.0878 6.42259 15.2441C6.57887 15.4004 6.66667 15.6123 6.66667 15.8333C6.66667 16.0544 6.57887 16.2663 6.42259 16.4226C6.26631 16.5789 6.05435 16.6667 5.83333 16.6667Z" fill="#111111"/>
<path d="M4.16667 13.3339H0.833333C0.61232 13.3339 0.400358 13.2461 0.244078 13.0898C0.0877974 12.9336 0 12.7216 0 12.5006C0 12.2796 0.0877974 12.0676 0.244078 11.9113C0.400358 11.755 0.61232 11.6672 0.833333 11.6672H4.16667C4.38768 11.6672 4.59964 11.755 4.75592 11.9113C4.9122 12.0676 5 12.2796 5 12.5006C5 12.7216 4.9122 12.9336 4.75592 13.0898C4.59964 13.2461 4.38768 13.3339 4.16667 13.3339Z" fill="#111111"/>
<path d="M10.8335 19.9621C10.6125 19.9719 10.3966 19.8936 10.2334 19.7443C10.0701 19.5949 9.97289 19.3869 9.96305 19.1659C9.95322 18.9448 10.0316 18.729 10.1809 18.5657C10.3302 18.4025 10.5383 18.3053 10.7593 18.2954C12.3363 18.1511 13.8396 17.5605 15.0931 16.5926C16.3465 15.6247 17.2982 14.3197 17.8367 12.8305C18.3752 11.3412 18.4782 9.72931 18.1337 8.18361C17.7891 6.63792 17.0112 5.2224 15.8912 4.10286C14.7711 2.98332 13.3553 2.2061 11.8094 1.86225C10.2635 1.51839 8.65172 1.62214 7.1627 2.16132C5.67368 2.70051 4.36913 3.65282 3.40183 4.90671C2.43454 6.1606 1.84455 7.66416 1.70098 9.24127C1.68109 9.4614 1.57457 9.66461 1.40485 9.8062C1.23513 9.94779 1.01611 10.0162 0.795981 9.99627C0.575851 9.97638 0.37264 9.86986 0.23105 9.70014C0.08946 9.53042 0.0210904 9.3114 0.0409816 9.09127C0.273389 6.52736 1.48565 4.15186 3.42542 2.45924C5.36519 0.766633 7.88301 -0.112672 10.4548 0.00436735C13.0265 0.121407 15.4541 1.22577 17.2321 3.08758C19.0101 4.94939 20.0016 7.42519 20.0001 9.99961C20.0129 12.4982 19.0847 14.9101 17.4 16.7555C15.7154 18.6008 13.3979 19.7444 10.9085 19.9588C10.8835 19.9613 10.8576 19.9621 10.8335 19.9621Z" fill="#111111"/>
<path d="M10.0001 5C9.77907 5 9.56711 5.0878 9.41083 5.24408C9.25455 5.40036 9.16675 5.61232 9.16675 5.83333V10C9.1668 10.221 9.25462 10.4329 9.41091 10.5892L11.9109 13.0892C12.0681 13.241 12.2786 13.325 12.4971 13.3231C12.7156 13.3212 12.9246 13.2335 13.0791 13.079C13.2336 12.9245 13.3212 12.7155 13.3231 12.497C13.325 12.2785 13.241 12.068 13.0892 11.9108L10.8334 9.655V5.83333C10.8334 5.61232 10.7456 5.40036 10.5893 5.24408C10.4331 5.0878 10.2211 5 10.0001 5Z" fill="#111111"/>
</g>
<defs>
<clipPath id="clip0_1221_3496">
<rect width="20" height="20" fill="white"/>
</clipPath>
</defs>
</svg>
