<svg width="20" height="20" viewBox="0 0 20 20" fill="none" xmlns="http://www.w3.org/2000/svg">
<path d="M15.3473 4.69353H13.7431C13.5658 3.8395 13.0967 3.07213 12.4149 2.52076C11.7331 1.96938 10.8802 1.66773 10 1.66663H4.65282C3.64021 1.66783 2.66943 2.06685 1.9534 2.77615C1.23738 3.48546 0.834587 4.44715 0.833374 5.45026L0.833374 12.2608C0.835294 12.9385 1.06677 13.596 1.49073 14.128C1.91468 14.6599 2.50659 15.0355 3.17164 15.1946C3.09965 15.5733 3.11195 15.963 3.20769 16.3365C3.30342 16.71 3.48028 17.0584 3.72591 17.3572C3.97155 17.656 4.28005 17.8981 4.62989 18.0666C4.97973 18.2351 5.36248 18.326 5.75142 18.3329C6.14036 18.3397 6.52613 18.2624 6.88181 18.1064C7.23749 17.9503 7.55451 17.7193 7.81074 17.4293C8.06698 17.1394 8.25625 16.7975 8.36536 16.4276C8.47447 16.0577 8.50079 15.6687 8.44247 15.2877H11.5607C11.541 15.4129 11.5305 15.5394 11.5293 15.6661C11.5293 16.3685 11.811 17.0422 12.3124 17.5389C12.8138 18.0356 13.4939 18.3146 14.203 18.3146C14.912 18.3146 15.5921 18.0356 16.0935 17.5389C16.5949 17.0422 16.8766 16.3685 16.8766 15.6661C16.8757 15.5078 16.8601 15.35 16.83 15.1946C17.4947 15.0352 18.0863 14.6595 18.51 14.1276C18.9336 13.5957 19.1649 12.9383 19.1667 12.2608V8.47717C19.1655 7.47405 18.7627 6.51237 18.0467 5.80306C17.3307 5.09375 16.3599 4.69473 15.3473 4.69353ZM17.6389 8.47717V9.23389H13.8195V6.20699H15.3473C15.955 6.20699 16.5379 6.44617 16.9677 6.87191C17.3975 7.29765 17.6389 7.87508 17.6389 8.47717ZM2.36115 12.2608V5.45026C2.36115 4.84817 2.60259 4.27074 3.03237 3.845C3.46214 3.41926 4.04503 3.18008 4.65282 3.18008H10C10.6078 3.18008 11.1907 3.41926 11.6205 3.845C12.0503 4.27074 12.2917 4.84817 12.2917 5.45026V13.7743H3.88893C3.48374 13.7743 3.09514 13.6148 2.80863 13.331C2.52211 13.0471 2.36115 12.6622 2.36115 12.2608ZM6.94448 15.6661C6.94448 15.9671 6.82376 16.2558 6.60888 16.4687C6.39399 16.6816 6.10255 16.8012 5.79865 16.8012C5.49476 16.8012 5.20331 16.6816 4.98842 16.4687C4.77354 16.2558 4.65282 15.9671 4.65282 15.6661C4.65329 15.5367 4.67736 15.4086 4.72386 15.2877H6.87344C6.91995 15.4086 6.94402 15.5367 6.94448 15.6661ZM14.2014 16.8012C13.8975 16.8012 13.6061 16.6816 13.3912 16.4687C13.1763 16.2558 13.0556 15.9671 13.0556 15.6661C13.0559 15.5367 13.08 15.4085 13.1266 15.2877H15.2762C15.3229 15.4085 15.3469 15.5367 15.3473 15.6661C15.3473 15.9671 15.2265 16.2558 15.0117 16.4687C14.7968 16.6816 14.5053 16.8012 14.2014 16.8012ZM16.1112 13.7743H13.8195V10.7473H17.6389V12.2608C17.6389 12.6622 17.478 13.0471 17.1915 13.331C16.9049 13.6148 16.5163 13.7743 16.1112 13.7743Z" fill="#111111"/>
</svg>
