<?xml version="1.0" encoding="iso-8859-1"?>
<!-- Uploaded to: SVG Repo, www.svgrepo.com, Generator: SVG Repo Mixer Tools -->
<svg fill="#000000" height="20" width="20" version="1.1" id="Layer_1" xmlns="http://www.w3.org/2000/svg" xmlns:xlink="http://www.w3.org/1999/xlink" 
	 viewBox="0 0 329.999 329.999" xml:space="preserve">
<path id="XMLID_307_" d="M300,240l-45-0.001v-145c0-8.284-6.716-15-15-15h-40V55.007c0-8.284-6.716-15-15-15
	c-8.284,0-15,6.716-15,15v24.992h-40c-8.284,0-15,6.716-15,15v145l-30-0.001V195v-90V15c0-8.284-6.716-15-15-15H30
	c-8.284,0-15,6.716-15,15s6.716,15,15,15h25v75v90v59.999c0,8.284,6.716,15,15,15h7.58c-1.665,4.695-2.58,9.742-2.58,15
	c0,24.813,20.187,45,45,45s45-20.187,45-45c0-5.258-0.915-10.305-2.58-14.999h34.16c-1.665,4.695-2.58,9.741-2.58,14.999
	c0,24.813,20.187,45,45,45s45-20.187,45-45c0-5.258-0.915-10.304-2.58-14.999H300c8.283,0,15-6.716,15-15
	C315,246.716,308.284,240,300,240z M144.999,109.999h39.98c0.007,0,0.013,0.001,0.02,0.001c0.007,0,0.013-0.001,0.02-0.001h39.98
	v130h-80V109.999z M134.999,284.999c0,8.271-6.729,15-15,15s-15-6.729-15-15c0-8.27,6.727-14.997,14.996-14.999h0.008
	C128.273,270.001,134.999,276.729,134.999,284.999z M253.999,284.999c0,8.271-6.729,15-15,15s-15-6.729-15-15
	c0-8.266,6.721-14.992,14.986-14.999h0.027C247.279,270.007,253.999,276.733,253.999,284.999z"/>
</svg>