<svg width="16" height="16" viewBox="0 0 16 16" fill="none" xmlns="http://www.w3.org/2000/svg">
<g clip-path="url(#clip0_1252_3435)">
<path d="M5.2222 7.44436H3.55554C2.32998 7.44436 1.33331 6.4477 1.33331 5.22214V3.55547C1.33331 2.32992 2.32998 1.33325 3.55554 1.33325H5.2222C6.44776 1.33325 7.44442 2.32992 7.44442 3.55547V5.22214C7.44442 6.4477 6.44776 7.44436 5.2222 7.44436ZM3.55554 2.99992C3.24942 2.99992 2.99998 3.24936 2.99998 3.55547V5.22214C2.99998 5.52825 3.24942 5.7777 3.55554 5.7777H5.2222C5.52831 5.7777 5.77776 5.52825 5.77776 5.22214V3.55547C5.77776 3.24936 5.52831 2.99992 5.2222 2.99992H3.55554ZM12.4444 7.44436H10.7778C9.5522 7.44436 8.55554 6.4477 8.55554 5.22214V3.55547C8.55554 2.32992 9.5522 1.33325 10.7778 1.33325H12.4444C13.67 1.33325 14.6666 2.32992 14.6666 3.55547V5.22214C14.6666 6.4477 13.67 7.44436 12.4444 7.44436ZM10.7778 2.99992C10.4711 2.99992 10.2222 3.24936 10.2222 3.55547V5.22214C10.2222 5.52825 10.4711 5.7777 10.7778 5.7777H12.4444C12.7511 5.7777 13 5.52825 13 5.22214V3.55547C13 3.24936 12.7511 2.99992 12.4444 2.99992H10.7778ZM5.2222 14.6666H3.55554C2.32998 14.6666 1.33331 13.6699 1.33331 12.4444V10.7777C1.33331 9.55214 2.32998 8.55547 3.55554 8.55547H5.2222C6.44776 8.55547 7.44442 9.55214 7.44442 10.7777V12.4444C7.44442 13.6699 6.44776 14.6666 5.2222 14.6666ZM3.55554 10.2221C3.24942 10.2221 2.99998 10.4716 2.99998 10.7777V12.4444C2.99998 12.7505 3.24942 12.9999 3.55554 12.9999H5.2222C5.52831 12.9999 5.77776 12.7505 5.77776 12.4444V10.7777C5.77776 10.4716 5.52831 10.2221 5.2222 10.2221H3.55554ZM10.7778 9.94436V9.38881C10.7778 8.92881 10.4044 8.55547 9.94442 8.55547H9.38887C8.92887 8.55547 8.55554 8.92881 8.55554 9.38881V9.94436C8.55554 10.4044 8.92887 10.7777 9.38887 10.7777H9.94442C10.4044 10.7777 10.7778 10.4044 10.7778 9.94436ZM12.4444 11.611C12.4444 11.151 12.0711 10.7777 11.6111 10.7777C11.1511 10.7777 10.7778 11.151 10.7778 11.611C10.7778 12.071 11.1511 12.4444 11.6111 12.4444C12.0711 12.4444 12.4444 12.071 12.4444 11.611ZM10.7778 13.8333V13.2777C10.7778 12.8177 10.4044 12.4444 9.94442 12.4444H9.38887C8.92887 12.4444 8.55554 12.8177 8.55554 13.2777V13.8333C8.55554 14.2933 8.92887 14.6666 9.38887 14.6666H9.94442C10.4044 14.6666 10.7778 14.2933 10.7778 13.8333ZM14.6666 9.94436V9.38881C14.6666 8.92881 14.2933 8.55547 13.8333 8.55547H13.2778C12.8178 8.55547 12.4444 8.92881 12.4444 9.38881V9.94436C12.4444 10.4044 12.8178 10.7777 13.2778 10.7777H13.8333C14.2933 10.7777 14.6666 10.4044 14.6666 9.94436Z" fill="black"/>
</g>
<defs>
<clipPath id="clip0_1252_3435">
<rect width="13.3333" height="13.3333" fill="white" transform="translate(1.33331 1.33325)"/>
</clipPath>
</defs>
</svg>
