<svg width="20" height="20" viewBox="0 0 20 20" fill="none" xmlns="http://www.w3.org/2000/svg">
<path d="M15.3472 4.69353H13.7431C13.5658 3.8395 13.0967 3.07213 12.4149 2.52076C11.733 1.96938 10.8802 1.66773 10 1.66663H4.65279C3.64018 1.66783 2.66939 2.06685 1.95337 2.77615C1.23735 3.48546 0.834556 4.44715 0.833344 5.45026L0.833344 12.2608C0.835264 12.9385 1.06674 13.596 1.4907 14.128C1.91465 14.6599 2.50656 15.0355 3.17161 15.1946C3.09962 15.5733 3.11192 15.963 3.20766 16.3365C3.30339 16.71 3.48024 17.0584 3.72588 17.3572C3.97152 17.656 4.28002 17.8981 4.62986 18.0666C4.9797 18.2351 5.36245 18.326 5.75139 18.3329C6.14033 18.3397 6.5261 18.2624 6.88178 18.1064C7.23746 17.9503 7.55448 17.7193 7.81071 17.4293C8.06695 17.1394 8.25622 16.7975 8.36533 16.4276C8.47444 16.0577 8.50076 15.6687 8.44244 15.2877H11.5606C11.541 15.4129 11.5305 15.5394 11.5293 15.6661C11.5293 16.3685 11.811 17.0422 12.3124 17.5389C12.8138 18.0356 13.4938 18.3146 14.2029 18.3146C14.912 18.3146 15.5921 18.0356 16.0935 17.5389C16.5949 17.0422 16.8765 16.3685 16.8765 15.6661C16.8757 15.5078 16.8601 15.35 16.8299 15.1946C17.4947 15.0352 18.0863 14.6595 18.5099 14.1276C18.9336 13.5957 19.1648 12.9383 19.1667 12.2608V8.47717C19.1655 7.47405 18.7627 6.51237 18.0466 5.80306C17.3306 5.09375 16.3598 4.69473 15.3472 4.69353ZM17.6389 8.47717V9.23389H13.8195V6.20699H15.3472C15.955 6.20699 16.5379 6.44617 16.9677 6.87191C17.3975 7.29765 17.6389 7.87508 17.6389 8.47717ZM2.36112 12.2608V5.45026C2.36112 4.84817 2.60256 4.27074 3.03233 3.845C3.46211 3.41926 4.045 3.18008 4.65279 3.18008H10C10.6078 3.18008 11.1907 3.41926 11.6205 3.845C12.0502 4.27074 12.2917 4.84817 12.2917 5.45026V13.7743H3.8889C3.48371 13.7743 3.09511 13.6148 2.8086 13.331C2.52208 13.0471 2.36112 12.6622 2.36112 12.2608ZM6.94445 15.6661C6.94445 15.9671 6.82373 16.2558 6.60885 16.4687C6.39396 16.6816 6.10251 16.8012 5.79862 16.8012C5.49473 16.8012 5.20328 16.6816 4.98839 16.4687C4.77351 16.2558 4.65279 15.9671 4.65279 15.6661C4.65326 15.5367 4.67732 15.4086 4.72383 15.2877H6.87341C6.91992 15.4086 6.94398 15.5367 6.94445 15.6661ZM14.2014 16.8012C13.8975 16.8012 13.6061 16.6816 13.3912 16.4687C13.1763 16.2558 13.0556 15.9671 13.0556 15.6661C13.0559 15.5367 13.08 15.4085 13.1266 15.2877H15.2762C15.3228 15.4085 15.3469 15.5367 15.3472 15.6661C15.3472 15.9671 15.2265 16.2558 15.0116 16.4687C14.7967 16.6816 14.5053 16.8012 14.2014 16.8012ZM16.1111 13.7743H13.8195V10.7473H17.6389V12.2608C17.6389 12.6622 17.4779 13.0471 17.1914 13.331C16.9049 13.6148 16.5163 13.7743 16.1111 13.7743Z" fill="#FEFEFE"/>
</svg>
