<svg width="20" height="20" viewBox="0 0 20 20" fill="none" xmlns="http://www.w3.org/2000/svg">
<path d="M10 9.99984C10.8241 9.99984 11.6297 9.75547 12.3149 9.29763C13.0001 8.83979 13.5342 8.18904 13.8495 7.42769C14.1649 6.66633 14.2474 5.82855 14.0866 5.0203C13.9259 4.21204 13.529 3.46961 12.9463 2.88689C12.3636 2.30418 11.6212 1.90734 10.8129 1.74657C10.0047 1.5858 9.16688 1.66831 8.40553 1.98367C7.64417 2.29904 6.99342 2.83309 6.53558 3.5183C6.07774 4.2035 5.83337 5.00908 5.83337 5.83317C5.83448 6.9379 6.27382 7.99707 7.05498 8.77823C7.83614 9.55939 8.89531 9.99873 10 9.99984ZM10 3.05539C10.5494 3.05539 11.0865 3.21831 11.5433 3.52353C12.0001 3.82876 12.3561 4.26259 12.5664 4.77016C12.7766 5.27773 12.8316 5.83625 12.7244 6.37509C12.6173 6.91392 12.3527 7.40888 11.9642 7.79736C11.5757 8.18584 11.0808 8.45039 10.542 8.55757C10.0031 8.66476 9.4446 8.60975 8.93703 8.3995C8.42946 8.18926 7.99563 7.83322 7.6904 7.37642C7.38518 6.91962 7.22226 6.38256 7.22226 5.83317C7.22226 5.09646 7.51492 4.38992 8.03585 3.86899C8.55679 3.34805 9.26333 3.05539 10 3.05539Z" fill="#FEFEFE"/>
<path d="M10 11.6665C8.23253 11.6683 6.53798 12.301 5.28816 13.4258C4.03834 14.5506 3.33533 16.0757 3.33337 17.6665C3.33337 17.8433 3.41142 18.0129 3.55033 18.1379C3.68925 18.2629 3.87766 18.3332 4.07411 18.3332C4.27057 18.3332 4.45898 18.2629 4.5979 18.1379C4.73681 18.0129 4.81486 17.8433 4.81486 17.6665C4.81486 16.4288 5.36115 15.2418 6.33356 14.3667C7.30597 13.4915 8.62484 12.9998 10 12.9998C11.3752 12.9998 12.6941 13.4915 13.6665 14.3667C14.6389 15.2418 15.1852 16.4288 15.1852 17.6665C15.1852 17.8433 15.2633 18.0129 15.4022 18.1379C15.5411 18.2629 15.7295 18.3332 15.926 18.3332C16.1224 18.3332 16.3108 18.2629 16.4497 18.1379C16.5887 18.0129 16.6667 17.8433 16.6667 17.6665C16.6647 16.0757 15.9617 14.5506 14.7119 13.4258C13.4621 12.301 11.7675 11.6683 10 11.6665Z" fill="#FEFEFE"/>
</svg>
